<svg width="16" height="16" viewBox="0 0 16 16" fill="none" xmlns="http://www.w3.org/2000/svg">
<path d="M8.31947 5.60797L8.52296 4.59052L8.72645 5.60797C9.10227 7.48714 10.5712 8.95603 12.4503 9.33186L13.4678 9.53535L12.4503 9.73884C10.5712 10.1147 9.10227 11.5836 8.72645 13.4627L8.52296 14.4802L8.31947 13.4627C7.94364 11.5836 6.47475 10.1147 4.59557 9.73884L3.57812 9.53535L4.59557 9.33186C6.47475 8.95603 7.94364 7.48714 8.31947 5.60797Z" fill="#5BF0A5"/>
<path d="M4.37067 2.03465L4.47242 1.52592L4.57416 2.03465C4.76208 2.97422 5.49651 3.70867 6.43611 3.89659L6.94483 3.99834L6.43611 4.10008C5.49651 4.28798 4.76208 5.02243 4.57416 5.96203L4.47242 6.47075L4.37067 5.96203C4.18275 5.02243 3.4483 4.28798 2.50872 4.10008L2 3.99834L2.50872 3.89659C3.4483 3.70867 4.18275 2.97422 4.37067 2.03465Z" fill="#5BF0A5"/>
<path d="M12.2836 3.64598L12.3515 3.30683L12.4193 3.64598C12.5446 4.27238 13.0342 4.76199 13.6606 4.88727L13.9997 4.95512L13.6606 5.02294C13.0342 5.14822 12.5446 5.63784 12.4193 6.26423L12.3515 6.60339L12.2836 6.26423C12.1584 5.63784 11.6687 5.14822 11.0423 5.02294L10.7032 4.95512L11.0423 4.88727C11.6687 4.76199 12.1584 4.27238 12.2836 3.64598Z" fill="#5BF0A5"/>
</svg>
